<?xml version="1.0" encoding="UTF-8" standalone="no"?>
<!-- Created with Inkscape (http://www.inkscape.org/) -->

<svg
   width="106.05667mm"
   height="106.05667mm"
   viewBox="0 0 106.05667 106.05667"
   version="1.1"
   id="svg1"
   inkscape:version="1.3.2 (1:1.3.2+202311252150+091e20ef0f)"
   sodipodi:docname="authenticator_icon.svg"
   xmlns:inkscape="http://www.inkscape.org/namespaces/inkscape"
   xmlns:sodipodi="http://sodipodi.sourceforge.net/DTD/sodipodi-0.dtd"
   xmlns="http://www.w3.org/2000/svg"
   xmlns:svg="http://www.w3.org/2000/svg">
  <sodipodi:namedview
     id="namedview1"
     pagecolor="#a6a6a6"
     bordercolor="#000000"
     borderopacity="0.25"
     inkscape:showpageshadow="2"
     inkscape:pageopacity="0.0"
     inkscape:pagecheckerboard="0"
     inkscape:deskcolor="#a6a6a6"
     inkscape:document-units="mm"
     inkscape:zoom="0.88693888"
     inkscape:cx="109.36492"
     inkscape:cy="133.04186"
     inkscape:window-width="1920"
     inkscape:window-height="946"
     inkscape:window-x="0"
     inkscape:window-y="0"
     inkscape:window-maximized="1"
     inkscape:current-layer="layer1"
     showborder="false" />
  <defs
     id="defs1" />
  <g
     inkscape:label="Layer 1"
     inkscape:groupmode="layer"
     id="layer1"
     transform="translate(-49.19636,-81.134638)">
    <g
       id="g19">
      <rect
         style="fill:#000000;stroke:#ffffff;stroke-width:1.32292;stroke-linecap:round;stroke-linejoin:round;stroke-dasharray:none"
         id="rect1-3"
         width="104.73376"
         height="104.73376"
         x="49.857819"
         y="81.796097"
         ry="8.0007935" />
      <path
         d="m 59.579422,160.00668 h 9.247046 v 2.07936 h -6.996442 v 4.48898 q 0.525956,-0.19571 1.051913,-0.28133 0.538188,-0.0978 1.076375,-0.0978 2.837718,0 4.501208,1.67572 1.66349,1.67572 1.66349,4.5379 0,2.88665 -1.749111,4.55014 -1.736879,1.66349 -4.75807,1.66349 -1.455553,0 -2.666476,-0.19571 -1.198691,-0.1957 -2.152752,-0.58711 v -2.50747 q 1.125302,0.61158 2.262836,0.91737 1.137533,0.29355 2.323993,0.29355 2.042668,0 3.143506,-1.07637 1.113071,-1.07638 1.113071,-3.05789 0,-1.95704 -1.149765,-3.04565 -1.137534,-1.08861 -3.180201,-1.08861 -0.990755,0 -1.932584,0.2324 -0.941829,0.22017 -1.798037,0.67274 z m 14.249748,0 h 11.49765 v 1.05191 l -6.531644,17.20978 H 76.21432 l 6.360403,-16.18233 H 73.82917 Z m 22.371491,2.2506 -5.761056,9.65069 h 5.761056 z m -0.40364,-2.2506 h 2.862181 v 11.90129 h 2.434078 v 2.00597 h -2.434078 v 4.35443 h -2.458541 v -4.35443 h -7.742566 v -2.33622 z m 13.784949,10.16441 q 1.57787,0 2.47077,-1.13753 0.90513,-1.13754 0.90513,-3.14351 0,-2.00597 -0.90513,-3.14351 -0.8929,-1.13753 -2.47077,-1.13753 -1.63903,0 -2.47077,1.08861 -0.83175,1.07637 -0.83175,3.19243 0,2.12829 0.81952,3.20466 0.83174,1.07638 2.483,1.07638 z m -4.40336,7.7181 v -2.27506 q 0.77059,0.45256 1.63903,0.69719 0.86844,0.2324 1.81027,0.2324 2.34845,0 3.54715,-1.76134 1.21092,-1.77357 1.21092,-5.21064 -0.57488,1.22316 -1.61457,1.88366 -1.03968,0.64827 -2.38515,0.64827 -2.64201,0 -4.09756,-1.62679 -1.44333,-1.6268 -1.44333,-4.61129 0,-2.9478 1.48002,-4.56237 1.49225,-1.62679 4.20765,-1.62679 3.1802,0 4.66022,2.2873 1.48002,2.28729 1.48002,7.19214 0,4.61129 -1.78581,7.04537 -1.77357,2.42185 -5.16171,2.42185 -0.8929,0 -1.79804,-0.19571 -0.90513,-0.18347 -1.74911,-0.53819 z m 24.31631,-17.47887 v 2.27507 q -0.77059,-0.45257 -1.63903,-0.68497 -0.86843,-0.24463 -1.81026,-0.24463 -2.34846,0 -3.55938,1.77357 -1.21093,1.76134 -1.21093,5.19841 0.58712,-1.22316 1.6268,-1.87143 1.03968,-0.6605 2.38515,-0.6605 2.64201,0 4.08534,1.62679 1.45555,1.61457 1.45555,4.58683 0,2.96004 -1.49225,4.58683 -1.49225,1.6268 -4.19542,1.6268 -3.1802,0 -4.66022,-2.27507 -1.48001,-2.2873 -1.48001,-7.19215 0,-4.62352 1.77357,-7.04537 1.78581,-2.43407 5.16171,-2.43407 0.90514,0 1.81027,0.1957 0.90513,0.18347 1.74911,0.53819 z m -4.40335,7.7181 q -1.57787,0 -2.48301,1.13754 -0.90513,1.13753 -0.90513,3.1435 0,2.00598 0.90513,3.14351 0.90514,1.13753 2.48301,1.13753 1.63902,0 2.47077,-1.07637 0.83174,-1.08861 0.83174,-3.20467 0,-2.12829 -0.83174,-3.20466 -0.83175,-1.07638 -2.47077,-1.07638 z m 16.85506,0.36695 q 1.79804,0.47703 2.7521,1.70018 0.95406,1.21093 0.95406,3.03343 0,2.51969 -1.70018,3.96302 -1.68796,1.43109 -4.68468,1.43109 -1.25985,0 -2.56863,-0.2324 -1.30877,-0.2324 -2.56862,-0.67274 v -2.45854 q 1.24761,0.64827 2.45854,0.96629 1.21092,0.31802 2.40961,0.31802 2.03044,0 3.11904,-0.91736 1.08861,-0.91737 1.08861,-2.64201 0,-1.59011 -1.08861,-2.5197 -1.0886,-0.94183 -2.9478,-0.94183 h -1.88365 v -2.03044 h 1.88365 q 1.70019,0 2.65425,-0.74612 0.95406,-0.74613 0.95406,-2.07936 0,-1.40663 -0.8929,-2.15276 -0.88068,-0.75835 -2.5197,-0.75835 -1.08861,0 -2.25061,0.24463 -1.16199,0.24463 -2.43407,0.73389 v -2.27506 q 1.48001,-0.39141 2.62978,-0.58712 1.16199,-0.1957 2.0549,-0.1957 2.66647,0 4.25657,1.34547 1.60234,1.33323 1.60234,3.54714 0,1.50448 -0.84398,2.50747 -0.83174,1.00299 -2.43408,1.41886 z"
         id="text3-1"
         style="font-size:25.0502px;font-family:Monospace;-inkscape-font-specification:'Monospace, Normal';text-align:center;text-anchor:middle;fill:#ffffff;stroke-width:2.64583;stroke-linecap:round;stroke-linejoin:round"
         aria-label="574963" />
      <path
         d="m 59.377597,106.21544 h 3.840705 V 92.259247 l -4.134262,0.929598 v -2.250604 l 4.109799,-0.905134 h 2.470771 v 16.182333 h 3.791778 v 2.07936 H 59.377597 Z m 13.47916,-16.182333 h 11.497651 v 1.051912 L 77.822764,108.2948 h -2.580856 l 6.360403,-16.182331 h -8.745554 z m 15.913238,0 h 9.247046 v 2.079362 h -6.996442 v 4.488976 q 0.525956,-0.195705 1.051912,-0.281326 0.538188,-0.09785 1.076376,-0.09785 2.837718,0 4.501208,1.675721 1.66349,1.675722 1.66349,4.5379 0,2.88664 -1.749111,4.55013 -1.736879,1.66349 -4.75807,1.66349 -1.455554,0 -2.666476,-0.1957 -1.198692,-0.1957 -2.152752,-0.58711 v -2.50747 q 1.125302,0.61158 2.262835,0.91737 1.137534,0.29355 2.323994,0.29355 2.042667,0 3.143506,-1.07637 1.11307,-1.07638 1.11307,-3.05789 0,-1.95705 -1.149765,-3.045651 -1.137533,-1.088608 -3.180201,-1.088608 -0.990755,0 -1.932583,0.2324 -0.941829,0.220167 -1.798037,0.672735 z m 19.839565,10.164413 q 1.57787,0 2.47077,-1.137535 0.90513,-1.137533 0.90513,-3.143506 0,-2.005973 -0.90513,-3.143507 -0.8929,-1.137533 -2.47077,-1.137533 -1.63903,0 -2.47078,1.088607 -0.83174,1.076376 -0.83174,3.192433 0,2.128288 0.81951,3.204664 0.83175,1.076377 2.48301,1.076377 z m -4.40336,7.7181 v -2.27506 q 0.77059,0.45256 1.63903,0.69719 0.86844,0.2324 1.81027,0.2324 2.34845,0 3.54714,-1.76134 1.21093,-1.77357 1.21093,-5.210637 -0.57489,1.223157 -1.61457,1.883657 -1.03968,0.64827 -2.38515,0.64827 -2.64201,0 -4.09757,-1.62679 -1.44332,-1.626798 -1.44332,-4.611295 0,-2.947801 1.48002,-4.562365 1.49225,-1.626795 4.20765,-1.626795 3.1802,0 4.66022,2.287298 1.48001,2.287299 1.48001,7.192147 0,4.61129 -1.7858,7.04537 -1.77357,2.42184 -5.16171,2.42184 -0.8929,0 -1.79804,-0.1957 -0.90513,-0.18347 -1.74911,-0.53819 z m 16.75722,-1.70018 h 8.39083 v 2.07936 h -11.09401 v -2.07936 q 2.2873,-2.40962 3.99972,-4.25658 1.71242,-1.84696 2.36069,-2.605318 1.22315,-1.492248 1.65126,-2.409614 0.4281,-0.929597 0.4281,-1.895889 0,-1.528943 -0.90513,-2.397382 -0.89291,-0.86844 -2.45854,-0.86844 -1.11308,0 -2.33623,0.403641 -1.22315,0.403641 -2.59309,1.223154 v -2.495234 q 1.25985,-0.599346 2.47077,-0.905135 1.22316,-0.305788 2.40962,-0.305788 2.67871,0 4.3055,1.43109 1.63903,1.418859 1.63903,3.730621 0,1.174228 -0.55042,2.348456 -0.53819,1.174228 -1.76134,2.593087 -0.68497,0.795051 -1.99374,2.201681 -1.29655,1.40662 -3.96302,4.20765 z m 19.50931,-13.93173 -5.76106,9.65069 h 5.76106 z m -0.40364,-2.250603 h 2.86218 V 101.9344 h 2.43407 v 2.00597 h -2.43407 v 4.35443 h -2.45854 v -4.35443 h -7.74257 v -2.33622 z"
         id="text1-5"
         style="font-size:25.0502px;font-family:Monospace;-inkscape-font-specification:'Monospace, Normal';text-align:center;text-anchor:middle;fill:#ffffff;stroke-width:2.64583;stroke-linecap:round;stroke-linejoin:round"
         aria-label="175924" />
      <g
         id="g18"
         transform="matrix(0.67706534,0,0,0.67706534,148.16985,35.648356)">
        <circle
           style="fill:#ffffff;stroke-width:2.86595;stroke-linecap:round;stroke-linejoin:round"
           id="path3"
           cx="-67.859253"
           cy="145.50238"
           r="31.8685" />
        <path
           style="fill:none;stroke:#000000;stroke-width:0.824297;stroke-linecap:round;stroke-linejoin:round;stroke-dasharray:none"
           d="m -36.981461,145.50238 h -3.513177"
           id="path7" />
        <path
           style="fill:none;stroke:#000000;stroke-width:0.824297;stroke-linecap:round;stroke-linejoin:round;stroke-dasharray:none"
           d="m -41.118302,160.94128 -3.042499,-1.7566"
           id="path8" />
        <path
           style="fill:none;stroke:#000000;stroke-width:0.824297;stroke-linecap:round;stroke-linejoin:round;stroke-dasharray:none"
           d="m -52.420353,172.24335 -1.756589,-3.0425"
           id="path9" />
        <path
           style="fill:none;stroke:#000000;stroke-width:0.824297;stroke-linecap:round;stroke-linejoin:round;stroke-dasharray:none"
           d="m -67.859253,176.38017 v -3.51318"
           id="path10" />
        <path
           style="fill:none;stroke:#000000;stroke-width:0.824297;stroke-linecap:round;stroke-linejoin:round;stroke-dasharray:none"
           d="m -83.298152,172.24335 1.756588,-3.0425"
           id="path11" />
        <path
           style="fill:none;stroke:#000000;stroke-width:0.824297;stroke-linecap:round;stroke-linejoin:round;stroke-dasharray:none"
           d="m -94.600204,160.94128 3.0425,-1.75659"
           id="path13" />
        <path
           style="fill:none;stroke:#000000;stroke-width:0.824297;stroke-linecap:round;stroke-linejoin:round;stroke-dasharray:none"
           d="m -98.737042,145.50238 h 3.513174"
           id="path14" />
        <path
           style="fill:none;stroke:#000000;stroke-width:0.824297;stroke-linecap:round;stroke-linejoin:round;stroke-dasharray:none"
           d="m -94.600204,130.06348 3.0425,1.75659"
           id="path12" />
        <path
           style="fill:none;stroke:#000000;stroke-width:0.824297;stroke-linecap:round;stroke-linejoin:round;stroke-dasharray:none"
           d="m -83.298149,118.76143 1.756589,3.0425"
           id="path15" />
        <path
           style="fill:none;stroke:#000000;stroke-width:0.824297;stroke-linecap:round;stroke-linejoin:round;stroke-dasharray:none"
           d="m -67.859253,114.62459 v 3.51318"
           id="path16" />
        <path
           style="fill:none;stroke:#000000;stroke-width:0.824297;stroke-linecap:round;stroke-linejoin:round;stroke-dasharray:none"
           d="m -52.42036,118.76143 -1.75659,3.0425"
           id="path17" />
        <path
           style="fill:none;stroke:#000000;stroke-width:0.824297;stroke-linecap:round;stroke-linejoin:round;stroke-dasharray:none"
           d="m -41.118289,130.06349 -3.042502,1.7566"
           id="path18" />
        <path
           style="fill:none;stroke:#ff0000;stroke-width:3.95674;stroke-linecap:round;stroke-linejoin:round;stroke-dasharray:none"
           d="m -67.859253,118.05991 v 27.44247"
           id="path4" />
        <path
           style="fill:none;stroke:#ff0000;stroke-width:3.95674;stroke-linecap:round;stroke-linejoin:round;stroke-dasharray:none"
           d="m -57.80759,128.09239 -10.051663,17.40999"
           id="path5" />
      </g>
    </g>
  </g>
</svg>
